<svg xmlns="http://www.w3.org/2000/svg" width="168" height="34" viewBox="0 0 168 34" fill="none">
<path d="M48.9084 16.6304H45.7359V22.7927C45.7359 23.3041 45.8592 23.6854 46.0976 23.9194C46.3441 24.1534 46.6976 24.2921 47.166 24.3181C47.6345 24.3441 48.2181 24.3441 48.9084 24.3008V27.7676C46.4181 28.0623 44.6593 27.8196 43.6401 27.0309C42.621 26.2422 42.1114 24.8295 42.1114 22.7927V16.6304H39.6704V12.9556H42.1114V9.96546L45.7359 8.81274V12.9556H48.9084V16.6304Z" fill="white"/>
<path d="M63.0121 25.9216C61.5738 27.4297 59.8068 28.1837 57.7274 28.1837C55.648 28.1837 53.8892 27.4297 52.4591 25.9216C51.029 24.4136 50.314 22.5588 50.314 20.366C50.314 18.1733 51.029 16.3185 52.4591 14.8104C53.8892 13.3024 55.648 12.5483 57.7274 12.5483C59.8068 12.5483 61.5656 13.3024 63.0121 14.8104C64.4504 16.3185 65.1737 18.1733 65.1737 20.366C65.1737 22.5588 64.4587 24.4049 63.0121 25.9216ZM55.0234 23.2955C55.7466 24.0669 56.6507 24.4482 57.7356 24.4482C58.8205 24.4482 59.7328 24.0669 60.4643 23.2955C61.1958 22.5241 61.5574 21.5448 61.5574 20.366C61.5574 19.1873 61.1958 18.2079 60.4643 17.4366C59.7328 16.6652 58.8287 16.2838 57.7356 16.2838C56.6507 16.2838 55.7466 16.6652 55.0234 17.4366C54.3001 18.2079 53.9385 19.1873 53.9385 20.366C53.9385 21.5448 54.3001 22.5241 55.0234 23.2955Z" fill="white"/>
<path d="M76.3267 12.9556H80.206L75.0857 27.7936C74.3542 29.9083 73.3844 31.4424 72.1844 32.4045C70.9762 33.3665 69.4804 33.7912 67.6805 33.6959V30.1424C68.6503 30.1597 69.4229 29.943 69.9982 29.4923C70.5653 29.0416 71.0255 28.3049 71.3625 27.2996L65.6011 12.9642H69.5626L73.2282 22.9227L76.3267 12.9556Z" fill="white"/>
<path d="M91.0713 12.9556H94.9507L89.8303 27.7936C89.0988 29.9083 88.129 31.4424 86.929 32.4045C85.7208 33.3665 84.225 33.7912 82.4251 33.6959V30.1424C83.3949 30.1597 84.1675 29.943 84.7428 29.4923C85.3099 29.0416 85.7702 28.3049 86.1071 27.2996L80.3457 12.9642H84.3072L87.9728 22.9227L91.0713 12.9556Z" fill="white"/>
<path d="M98.4603 11.1789C97.8603 11.1789 97.3425 10.9449 96.8987 10.4855C96.4549 10.0262 96.2412 9.47146 96.2412 8.83876C96.2412 8.20607 96.4631 7.65138 96.8987 7.18336C97.3343 6.70667 97.8603 6.47266 98.4603 6.47266C99.0767 6.47266 99.6109 6.70667 100.047 7.18336C100.49 7.66004 100.704 8.21474 100.704 8.83876C100.704 9.47146 100.482 10.0175 100.047 10.4855C99.6109 10.9535 99.0767 11.1789 98.4603 11.1789ZM96.6604 27.7676V12.9556H100.285V27.7676H96.6604Z" fill="white"/>
<path d="M111.774 12.5484C113.665 12.5484 115.284 13.3024 116.624 14.8105C117.963 16.3186 118.629 18.1733 118.629 20.3661C118.629 22.5588 117.963 24.4136 116.624 25.9217C115.284 27.4297 113.673 28.1838 111.774 28.1838C109.81 28.1838 108.29 27.4644 107.221 26.0257V27.7764H103.597V7.03613H107.221V14.7065C108.29 13.2678 109.81 12.5484 111.774 12.5484ZM108.323 23.3735C109.054 24.1536 109.983 24.5436 111.101 24.5436C112.218 24.5436 113.155 24.1536 113.895 23.3735C114.635 22.5935 115.004 21.5881 115.004 20.3661C115.004 19.144 114.635 18.1386 113.895 17.3586C113.155 16.5786 112.227 16.1886 111.101 16.1886C109.975 16.1886 109.054 16.5786 108.323 17.3586C107.591 18.1386 107.229 19.144 107.229 20.3661C107.221 21.5881 107.591 22.5935 108.323 23.3735Z" fill="white"/>
<path d="M128.689 7.03613C130.58 7.03613 132.174 7.7035 133.464 9.04689C134.755 10.3903 135.404 12.037 135.404 13.9958C135.404 15.9545 134.755 17.6013 133.464 18.9447C132.174 20.2881 130.58 20.9554 128.689 20.9554H125.237V27.7677H121.358V7.03613H128.689ZM128.689 17.1333C129.511 17.1333 130.193 16.8299 130.736 16.2319C131.278 15.6339 131.549 14.8798 131.549 13.9958C131.549 13.0857 131.278 12.3404 130.736 11.7423C130.193 11.153 129.511 10.8496 128.689 10.8496H125.237V17.1333H128.689Z" fill="white"/>
<path d="M147.502 12.9556H151.127V27.7676H147.502V26.0168C146.417 27.4556 144.889 28.1749 142.924 28.1749C141.05 28.1749 139.448 27.4209 138.108 25.9128C136.768 24.4048 136.103 22.55 136.103 20.3572C136.103 18.1645 136.768 16.3097 138.108 14.8017C139.448 13.2936 141.05 12.5396 142.924 12.5396C144.889 12.5396 146.417 13.2589 147.502 14.7063V12.9556ZM140.82 23.3734C141.552 24.1534 142.48 24.5434 143.598 24.5434C144.716 24.5434 145.653 24.1534 146.393 23.3734C147.132 22.5933 147.502 21.588 147.502 20.3659C147.502 19.1439 147.132 18.1385 146.393 17.3584C145.653 16.5784 144.724 16.1884 143.598 16.1884C142.472 16.1884 141.552 16.5784 140.82 17.3584C140.089 18.1385 139.727 19.1439 139.727 20.3659C139.727 21.588 140.089 22.5933 140.82 23.3734Z" fill="white"/>
<path d="M163.57 12.9556H167.449L162.329 27.7936C161.597 29.9083 160.628 31.4424 159.428 32.4045C158.219 33.3665 156.724 33.7912 154.924 33.6959V30.1424C155.893 30.1597 156.666 29.943 157.241 29.4923C157.808 29.0416 158.269 28.3049 158.606 27.2996L152.844 12.9642H156.806L160.471 22.9227L163.57 12.9556Z" fill="white"/>
<path d="M16.2467 6.17798H11.8003C11.2907 6.17798 10.7729 6.62 10.6332 7.17469L4.06633 33.0112C3.92661 33.5572 4.22249 34.0079 4.73206 34.0079H9.17847C9.68804 34.0079 10.2058 33.5659 10.3456 33.0112L16.9124 7.17469C17.0522 6.62 16.7563 6.17798 16.2467 6.17798Z" fill="white"/>
<path d="M7.58391 10.5288H3.17859C2.6608 10.5288 2.10192 11.0575 1.93754 11.6989L0.680051 16.6391C0.515674 17.2891 0.803334 17.8091 1.32112 17.8091H5.72644C6.24423 17.8091 6.80312 17.2805 6.96749 16.6391L8.22498 11.6989C8.38936 11.0488 8.1017 10.5288 7.58391 10.5288Z" fill="white"/>
<path d="M32.0764 3.23999H27.6299C27.1204 3.23999 26.5779 3.76868 26.4136 4.41004L25.1561 9.35027C24.9917 10.0003 25.2711 10.5203 25.7725 10.5203H30.2271C30.7367 10.5203 31.2791 9.99163 31.4435 9.35027L32.6928 4.41004C32.8571 3.76001 32.5859 3.23999 32.0764 3.23999Z" fill="white"/>
<path d="M25.3532 0.00708008H20.9067C20.3972 0.00708008 19.8794 0.4491 19.7397 1.00379L13.1728 26.8403C13.0331 27.3863 13.3289 27.837 13.8385 27.837H18.2849C18.7945 27.837 19.3123 27.395 19.452 26.8403L26.0189 1.00379C26.1586 0.4491 25.8627 0.00708008 25.3532 0.00708008Z" fill="white"/>
</svg>